G04*
G04 #@! TF.GenerationSoftware,Altium Limited,Altium Designer,21.2.1 (34)*
G04*
G04 Layer_Color=8421504*
%FSLAX44Y44*%
%MOMM*%
G71*
G04*
G04 #@! TF.SameCoordinates,88615370-4C05-4218-9965-B51CFC903A55*
G04*
G04*
G04 #@! TF.FilePolarity,Positive*
G04*
G01*
G75*
%ADD13R,0.7000X0.7000*%
%ADD14R,1.0000X0.9500*%
%ADD15R,0.9500X1.0000*%
%ADD16R,0.6000X1.3000*%
D13*
X368983Y102591D02*
D03*
Y91591D02*
D03*
X350683D02*
D03*
Y102591D02*
D03*
X280952D02*
D03*
Y91591D02*
D03*
X262652D02*
D03*
Y102591D02*
D03*
X306667D02*
D03*
X324967Y91591D02*
D03*
X306667D02*
D03*
X324967Y102591D02*
D03*
D14*
X389500Y320250D02*
D03*
X389500Y336250D02*
D03*
X237750Y320250D02*
D03*
Y336250D02*
D03*
X252750Y320250D02*
D03*
Y336250D02*
D03*
X446250Y396750D02*
D03*
Y412750D02*
D03*
X431000Y396750D02*
D03*
X431000Y412750D02*
D03*
X404500Y320250D02*
D03*
X404500Y336250D02*
D03*
X374500Y320250D02*
D03*
X374500Y336250D02*
D03*
X359500Y320250D02*
D03*
Y336250D02*
D03*
X344500Y320250D02*
D03*
X344500Y336250D02*
D03*
X329500Y320250D02*
D03*
Y336250D02*
D03*
X314500Y320250D02*
D03*
Y336250D02*
D03*
X389742Y234990D02*
D03*
Y250990D02*
D03*
X331305Y250964D02*
D03*
Y234964D02*
D03*
X299430Y234990D02*
D03*
Y250990D02*
D03*
Y165434D02*
D03*
Y181434D02*
D03*
X331311D02*
D03*
Y165434D02*
D03*
X389742D02*
D03*
Y181434D02*
D03*
X241017Y250990D02*
D03*
Y234990D02*
D03*
X222750Y320250D02*
D03*
Y336250D02*
D03*
X207750Y320250D02*
D03*
Y336250D02*
D03*
X192750Y320250D02*
D03*
Y336250D02*
D03*
X241017Y181434D02*
D03*
Y165434D02*
D03*
X183339Y179291D02*
D03*
Y163291D02*
D03*
X450546Y179291D02*
D03*
Y163291D02*
D03*
Y253223D02*
D03*
Y237223D02*
D03*
D15*
X352666Y277772D02*
D03*
X368666D02*
D03*
X352934Y208209D02*
D03*
X368934D02*
D03*
X352934Y138646D02*
D03*
X368934D02*
D03*
X278623Y208209D02*
D03*
X262623D02*
D03*
X278348Y277772D02*
D03*
X262348D02*
D03*
X175338Y263383D02*
D03*
X191339D02*
D03*
Y224678D02*
D03*
X175338D02*
D03*
X278623Y138646D02*
D03*
X262623D02*
D03*
D16*
X321141Y410920D02*
D03*
X359241D02*
D03*
X410041Y357580D02*
D03*
X321141D02*
D03*
X333841Y357580D02*
D03*
X346541Y357580D02*
D03*
X359241D02*
D03*
X333841Y410920D02*
D03*
X346541Y410920D02*
D03*
X371941Y357580D02*
D03*
X384641D02*
D03*
X397341Y357580D02*
D03*
X371941Y410920D02*
D03*
X384641D02*
D03*
X397341Y410920D02*
D03*
X410041Y410920D02*
D03*
X286450Y411170D02*
D03*
X273750Y411170D02*
D03*
X261050Y411170D02*
D03*
X248350Y411170D02*
D03*
X273750Y357830D02*
D03*
X261050Y357830D02*
D03*
X248350Y357830D02*
D03*
X222950Y411170D02*
D03*
X210250Y411170D02*
D03*
X235650Y357830D02*
D03*
X222950Y357830D02*
D03*
X210250Y357830D02*
D03*
X197550Y357830D02*
D03*
X286450Y357830D02*
D03*
X235650Y411170D02*
D03*
X197550Y411170D02*
D03*
M02*
