G04*
G04 #@! TF.GenerationSoftware,Altium Limited,Altium Designer,21.2.1 (34)*
G04*
G04 Layer_Color=128*
%FSLAX44Y44*%
%MOMM*%
G71*
G04*
G04 #@! TF.SameCoordinates,88615370-4C05-4218-9965-B51CFC903A55*
G04*
G04*
G04 #@! TF.FilePolarity,Positive*
G04*
G01*
G75*
%ADD63C,0.0508*%
D63*
X598490Y302130D02*
X604490D01*
X601490Y299130D02*
Y305130D01*
X85100Y23300D02*
X95100D01*
X90100Y18300D02*
Y28300D01*
X85100Y48700D02*
X95100D01*
X90100Y43700D02*
Y53700D01*
X135900Y48700D02*
X145900D01*
X140900Y43700D02*
Y53700D01*
X110500Y48700D02*
X120500D01*
X115500Y43700D02*
Y53700D01*
X135900Y23300D02*
X145900D01*
X140900Y18300D02*
Y28300D01*
X110500Y23300D02*
X120500D01*
X115500Y18300D02*
Y28300D01*
X380700Y31250D02*
X390700D01*
X385700Y26250D02*
Y36250D01*
X329900Y31250D02*
X339900D01*
X334900Y26250D02*
Y36250D01*
X355300Y31250D02*
X365300D01*
X360300Y26250D02*
Y36250D01*
X406100Y31250D02*
X416100D01*
X411100Y26250D02*
Y36250D01*
X304500Y31250D02*
X314500D01*
X309500Y26250D02*
Y36250D01*
X102750Y144250D02*
X112750D01*
X107750Y139250D02*
Y149250D01*
X52750Y144250D02*
X62750D01*
X57750Y139250D02*
Y149250D01*
X529750Y459500D02*
X540750D01*
X535250Y454000D02*
Y465000D01*
X529750Y359500D02*
X540750D01*
X535250Y354000D02*
Y365000D01*
X880250Y140250D02*
X890250D01*
X885250Y135250D02*
Y145250D01*
X880250Y115250D02*
X890250D01*
X885250Y110250D02*
Y120250D01*
X771490Y129130D02*
X777490D01*
X774490Y126130D02*
Y132130D01*
X771490Y302130D02*
X777490D01*
X774490Y299130D02*
Y305130D01*
X598490Y129130D02*
X604490D01*
X601490Y126130D02*
Y132130D01*
X657500Y279250D02*
X660500D01*
X659000Y277750D02*
Y280750D01*
X622000Y248750D02*
X625000D01*
X623500Y247250D02*
Y250250D01*
X553500Y220000D02*
X556500D01*
X555000Y218500D02*
Y221500D01*
X478500Y355000D02*
X481500D01*
X480000Y353500D02*
Y356500D01*
X428500Y382500D02*
X431500D01*
X430000Y381000D02*
Y384000D01*
X286000Y312500D02*
X289000D01*
X287500Y311000D02*
Y314000D01*
X243500Y375000D02*
X246500D01*
X245000Y373500D02*
Y376500D01*
X73500Y110000D02*
X76500D01*
X75000Y108500D02*
Y111500D01*
X73500Y85000D02*
X76500D01*
X75000Y83500D02*
Y86500D01*
X173500Y45000D02*
X176500D01*
X175000Y43500D02*
Y46500D01*
X366000Y55000D02*
X369000D01*
X367500Y53500D02*
Y56500D01*
X353500Y55000D02*
X356500D01*
X355000Y53500D02*
Y56500D01*
X341000Y55000D02*
X344000D01*
X342500Y53500D02*
Y56500D01*
X328500Y55000D02*
X331500D01*
X330000Y53500D02*
Y56500D01*
X316000Y55000D02*
X319000D01*
X317500Y53500D02*
Y56500D01*
X303500Y55000D02*
X306500D01*
X305000Y53500D02*
Y56500D01*
X291000Y55000D02*
X294000D01*
X292500Y53500D02*
Y56500D01*
X278500Y55000D02*
X281500D01*
X280000Y53500D02*
Y56500D01*
X219250Y102000D02*
X222250D01*
X220750Y100500D02*
Y103500D01*
X219250Y79750D02*
X222250D01*
X220750Y78250D02*
Y81250D01*
X244250Y102000D02*
X247250D01*
X245750Y100500D02*
Y103500D01*
X244250Y79500D02*
X247250D01*
X245750Y78000D02*
Y81000D01*
X252500Y152250D02*
X255500D01*
X254000Y150750D02*
Y153750D01*
X271500Y79250D02*
X274500D01*
X273000Y77750D02*
Y80750D01*
X312000Y111750D02*
X315000D01*
X313500Y110250D02*
Y113250D01*
X292250Y97000D02*
X295250D01*
X293750Y95500D02*
Y98500D01*
X336000Y96750D02*
X339000D01*
X337500Y95250D02*
Y98250D01*
X509000Y183750D02*
X512000D01*
X510500Y182250D02*
Y185250D01*
X470000Y232000D02*
X473000D01*
X471500Y230500D02*
Y233500D01*
X470000Y247500D02*
X473000D01*
X471500Y246000D02*
Y249000D01*
X570500Y201500D02*
X573500D01*
X572000Y200000D02*
Y203000D01*
X479250Y366500D02*
X482250D01*
X480750Y365000D02*
Y368000D01*
X509010Y255736D02*
X512010D01*
X510510Y254236D02*
Y257236D01*
X464500Y357500D02*
X467500D01*
X466000Y356000D02*
Y359000D01*
X211500Y243750D02*
X214500D01*
X213000Y242250D02*
Y245250D01*
X197500Y163000D02*
X200500D01*
X199000Y161500D02*
Y164500D01*
X181500Y148500D02*
X184500D01*
X183000Y147000D02*
Y150000D01*
X479750Y75750D02*
X482750D01*
X481250Y74250D02*
Y77250D01*
X194750Y249500D02*
X197750D01*
X196250Y248000D02*
Y251000D01*
X184750Y243500D02*
X187750D01*
X186250Y242000D02*
Y245000D01*
X145250Y139500D02*
X148250D01*
X146750Y138000D02*
Y141000D01*
X137250Y119000D02*
X140250D01*
X138750Y117500D02*
Y120500D01*
X131500Y139500D02*
X134500D01*
X133000Y138000D02*
Y141000D01*
X231250Y397500D02*
X234250D01*
X232750Y396000D02*
Y399000D01*
X173000Y333250D02*
X176000D01*
X174500Y331750D02*
Y334750D01*
X173250Y372000D02*
X176250D01*
X174750Y370500D02*
Y373500D01*
X234250Y425750D02*
X237250D01*
X235750Y424250D02*
Y427250D01*
X220000Y428500D02*
X223000D01*
X221500Y427000D02*
Y430000D01*
X177000Y308000D02*
X180000D01*
X178500Y306500D02*
Y309500D01*
X241146Y210105D02*
X244146D01*
X242646Y208605D02*
Y211604D01*
X301625Y207625D02*
X304625D01*
X303125Y206125D02*
Y209125D01*
X562250Y42250D02*
X565250D01*
X563750Y40750D02*
Y43750D01*
X562250Y32250D02*
X565250D01*
X563750Y30750D02*
Y33750D01*
X562250Y22250D02*
X565250D01*
X563750Y20750D02*
Y23750D01*
X286000Y152500D02*
X289000D01*
X287500Y151000D02*
Y154000D01*
X552250Y22250D02*
X555250D01*
X553750Y20750D02*
Y23750D01*
X552250Y32250D02*
X555250D01*
X553750Y30750D02*
Y33750D01*
X552250Y42250D02*
X555250D01*
X553750Y40750D02*
Y43750D01*
X552250Y52250D02*
X555250D01*
X553750Y50750D02*
Y53750D01*
X562250Y52250D02*
X565250D01*
X563750Y50750D02*
Y53750D01*
X535750Y184000D02*
X538750D01*
X537250Y182500D02*
Y185500D01*
X339000Y277500D02*
X342000D01*
X340500Y276000D02*
Y279000D01*
X314500Y235250D02*
X317500D01*
X316000Y233750D02*
Y236750D01*
X227750Y165500D02*
X230750D01*
X229250Y164000D02*
Y167000D01*
X313000Y299500D02*
X316000D01*
X314500Y298000D02*
Y301000D01*
M02*
