G04*
G04 #@! TF.GenerationSoftware,Altium Limited,Altium Designer,21.2.1 (34)*
G04*
G04 Layer_Color=128*
%FSLAX44Y44*%
%MOMM*%
G71*
G04*
G04 #@! TF.SameCoordinates,88615370-4C05-4218-9965-B51CFC903A55*
G04*
G04*
G04 #@! TF.FilePolarity,Positive*
G04*
G01*
G75*
%ADD14R,1.0000X0.9500*%
%ADD15R,0.9500X1.0000*%
%ADD16R,0.6000X1.3000*%
%ADD40R,6.0198X6.0198*%
%ADD41R,0.6000X1.1500*%
%ADD42R,0.8000X0.8000*%
%ADD43R,0.9000X0.8000*%
%ADD44R,1.5240X0.9144*%
%ADD45R,0.9144X1.5240*%
%ADD46R,1.0000X1.3000*%
%ADD47R,1.0000X1.8000*%
%ADD48R,1.0000X2.4000*%
%ADD49R,3.3000X2.4000*%
%ADD50R,1.3000X1.0000*%
D14*
X313500Y121250D02*
D03*
Y137250D02*
D03*
X257000Y116750D02*
D03*
Y132750D02*
D03*
X590000Y217000D02*
D03*
Y201000D02*
D03*
X459250Y255750D02*
D03*
Y239750D02*
D03*
X177750Y198000D02*
D03*
Y182000D02*
D03*
X192750Y198000D02*
D03*
X192750Y182000D02*
D03*
X157000Y230000D02*
D03*
Y214000D02*
D03*
X177791Y214059D02*
D03*
Y230059D02*
D03*
X192750Y214000D02*
D03*
Y230000D02*
D03*
X421250Y434500D02*
D03*
Y418500D02*
D03*
X241750Y116750D02*
D03*
Y132750D02*
D03*
X480750Y326250D02*
D03*
Y342250D02*
D03*
X496000Y326250D02*
D03*
Y342250D02*
D03*
X459250Y224750D02*
D03*
Y208750D02*
D03*
X439250Y418500D02*
D03*
Y434500D02*
D03*
X403250D02*
D03*
Y418500D02*
D03*
D15*
X727000Y129250D02*
D03*
X711000D02*
D03*
X649000D02*
D03*
X665000D02*
D03*
X662750Y178500D02*
D03*
X646750D02*
D03*
X621250Y201250D02*
D03*
X605250D02*
D03*
X621250Y216750D02*
D03*
X605250D02*
D03*
X744250Y219750D02*
D03*
X760250D02*
D03*
X744250Y235000D02*
D03*
X760250D02*
D03*
X649000Y302000D02*
D03*
X665000D02*
D03*
X727000D02*
D03*
X711000D02*
D03*
X537750Y237750D02*
D03*
X521750D02*
D03*
X415250Y311792D02*
D03*
X431250D02*
D03*
X407250Y327000D02*
D03*
X423250D02*
D03*
X380000Y208750D02*
D03*
X396000D02*
D03*
X483020Y224723D02*
D03*
X499021D02*
D03*
X499021Y240223D02*
D03*
X483020D02*
D03*
X499021Y255723D02*
D03*
X483020D02*
D03*
X537750Y253250D02*
D03*
X521750D02*
D03*
Y222250D02*
D03*
X537750D02*
D03*
Y206750D02*
D03*
X521750D02*
D03*
D16*
X638300Y254670D02*
D03*
X651000Y254670D02*
D03*
X663700Y254670D02*
D03*
X676400D02*
D03*
X638300Y201330D02*
D03*
X651000Y201330D02*
D03*
X663700Y201330D02*
D03*
X676400D02*
D03*
X689100Y254670D02*
D03*
X701800D02*
D03*
X714500Y254670D02*
D03*
X727200Y254670D02*
D03*
X689100Y201330D02*
D03*
X701800D02*
D03*
X714500Y201330D02*
D03*
X727200Y201330D02*
D03*
X402700Y290462D02*
D03*
X415400D02*
D03*
X428100D02*
D03*
X440800D02*
D03*
X402700Y237122D02*
D03*
X415400Y237122D02*
D03*
X428100Y237122D02*
D03*
X440800Y237122D02*
D03*
D40*
X282415Y358142D02*
D03*
D41*
X284250Y113195D02*
D03*
X274750Y135875D02*
D03*
X293750D02*
D03*
X284250Y135875D02*
D03*
X274750Y113125D02*
D03*
X293750D02*
D03*
D42*
X465750Y345250D02*
D03*
X465750Y323250D02*
D03*
D43*
X211416Y212684D02*
D03*
X231666Y221934D02*
D03*
X211416Y231684D02*
D03*
X211375Y180500D02*
D03*
X231625Y189750D02*
D03*
X211375Y199500D02*
D03*
D44*
X372585Y409958D02*
D03*
X372585Y397258D02*
D03*
X372585Y384558D02*
D03*
X372585Y371858D02*
D03*
X372585Y359158D02*
D03*
X372585Y320842D02*
D03*
X372585Y308142D02*
D03*
X372585Y295442D02*
D03*
X372585Y282742D02*
D03*
X372585Y270042D02*
D03*
X192415Y270042D02*
D03*
X192415Y282742D02*
D03*
X192415Y295442D02*
D03*
X192415Y308142D02*
D03*
X192415Y320842D02*
D03*
X192415Y333542D02*
D03*
X192415Y346242D02*
D03*
X192415Y359158D02*
D03*
X192415Y371858D02*
D03*
X192415Y384558D02*
D03*
X192415Y397258D02*
D03*
Y409958D02*
D03*
X192415Y422658D02*
D03*
X372585Y422658D02*
D03*
Y435358D02*
D03*
X192415Y435358D02*
D03*
X372585Y346242D02*
D03*
Y333542D02*
D03*
D45*
X326865Y255142D02*
D03*
X314165Y255142D02*
D03*
X301465Y255142D02*
D03*
X288765Y255142D02*
D03*
X276065D02*
D03*
X263365Y255142D02*
D03*
X250665Y255142D02*
D03*
X237965Y255142D02*
D03*
X225265Y255142D02*
D03*
X339565D02*
D03*
D46*
X377500Y173250D02*
D03*
X358500D02*
D03*
X481520Y206723D02*
D03*
X500521D02*
D03*
D47*
X413250Y209000D02*
D03*
X438250D02*
D03*
D48*
X500000Y44000D02*
D03*
X523000D02*
D03*
X477000Y44000D02*
D03*
D49*
X500000Y102000D02*
D03*
D50*
X449250Y31250D02*
D03*
Y50250D02*
D03*
M02*
