G04*
G04 #@! TF.GenerationSoftware,Altium Limited,Altium Designer,21.2.1 (34)*
G04*
G04 Layer_Color=2752767*
%FSLAX44Y44*%
%MOMM*%
G71*
G04*
G04 #@! TF.SameCoordinates,88615370-4C05-4218-9965-B51CFC903A55*
G04*
G04*
G04 #@! TF.FilePolarity,Positive*
G04*
G01*
G75*
%ADD63C,0.0508*%
%ADD64C,0.0677*%
D63*
X599458Y300098D02*
Y304162D01*
X603522D01*
Y300098D01*
X599458D01*
X535250Y457468D02*
X533218Y461532D01*
X537282D01*
X535250Y457468D01*
Y357468D02*
X533218Y361532D01*
X537282D01*
X535250Y357468D01*
X772458Y127098D02*
Y131162D01*
X776522D01*
Y127098D01*
X772458D01*
Y300098D02*
Y304162D01*
X776522D01*
Y300098D01*
X772458D01*
X599458Y127098D02*
Y131162D01*
X603522D01*
Y127098D01*
X599458D01*
X659000Y277218D02*
X660016Y278234D01*
X661032D01*
X660016Y279250D01*
X661032Y280266D01*
X660016D01*
X659000Y281282D01*
X657984Y280266D01*
X656968D01*
X657984Y279250D01*
X656968Y278234D01*
X657984D01*
X659000Y277218D01*
X623500Y246718D02*
X624516Y247734D01*
X625532D01*
X624516Y248750D01*
X625532Y249766D01*
X624516D01*
X623500Y250782D01*
X622484Y249766D01*
X621468D01*
X622484Y248750D01*
X621468Y247734D01*
X622484D01*
X623500Y246718D01*
X555000Y217968D02*
X556016Y218984D01*
X557032D01*
X556016Y220000D01*
X557032Y221016D01*
X556016D01*
X555000Y222032D01*
X553984Y221016D01*
X552968D01*
X553984Y220000D01*
X552968Y218984D01*
X553984D01*
X555000Y217968D01*
X480000Y352968D02*
X481016Y353984D01*
X482032D01*
X481016Y355000D01*
X482032Y356016D01*
X481016D01*
X480000Y357032D01*
X478984Y356016D01*
X477968D01*
X478984Y355000D01*
X477968Y353984D01*
X478984D01*
X480000Y352968D01*
X430000Y380468D02*
X431016Y381484D01*
X432032D01*
X431016Y382500D01*
X432032Y383516D01*
X431016D01*
X430000Y384532D01*
X428984Y383516D01*
X427968D01*
X428984Y382500D01*
X427968Y381484D01*
X428984D01*
X430000Y380468D01*
X287500Y310468D02*
X288516Y311484D01*
X289532D01*
X288516Y312500D01*
X289532Y313516D01*
X288516D01*
X287500Y314532D01*
X286484Y313516D01*
X285468D01*
X286484Y312500D01*
X285468Y311484D01*
X286484D01*
X287500Y310468D01*
X245000Y372968D02*
X246016Y373984D01*
X247032D01*
X246016Y375000D01*
X247032Y376016D01*
X246016D01*
X245000Y377032D01*
X243984Y376016D01*
X242968D01*
X243984Y375000D01*
X242968Y373984D01*
X243984D01*
X245000Y372968D01*
X75000Y107968D02*
X76016Y108984D01*
X77032D01*
X76016Y110000D01*
X77032Y111016D01*
X76016D01*
X75000Y112032D01*
X73984Y111016D01*
X72968D01*
X73984Y110000D01*
X72968Y108984D01*
X73984D01*
X75000Y107968D01*
Y82968D02*
X76016Y83984D01*
X77032D01*
X76016Y85000D01*
X77032Y86016D01*
X76016D01*
X75000Y87032D01*
X73984Y86016D01*
X72968D01*
X73984Y85000D01*
X72968Y83984D01*
X73984D01*
X75000Y82968D01*
X175000Y42968D02*
X176016Y43984D01*
X177032D01*
X176016Y45000D01*
X177032Y46016D01*
X176016D01*
X175000Y47032D01*
X173984Y46016D01*
X172968D01*
X173984Y45000D01*
X172968Y43984D01*
X173984D01*
X175000Y42968D01*
X367500Y52968D02*
X368516Y53984D01*
X369532D01*
X368516Y55000D01*
X369532Y56016D01*
X368516D01*
X367500Y57032D01*
X366484Y56016D01*
X365468D01*
X366484Y55000D01*
X365468Y53984D01*
X366484D01*
X367500Y52968D01*
X355000D02*
X356016Y53984D01*
X357032D01*
X356016Y55000D01*
X357032Y56016D01*
X356016D01*
X355000Y57032D01*
X353984Y56016D01*
X352968D01*
X353984Y55000D01*
X352968Y53984D01*
X353984D01*
X355000Y52968D01*
X342500D02*
X343516Y53984D01*
X344532D01*
X343516Y55000D01*
X344532Y56016D01*
X343516D01*
X342500Y57032D01*
X341484Y56016D01*
X340468D01*
X341484Y55000D01*
X340468Y53984D01*
X341484D01*
X342500Y52968D01*
X330000D02*
X331016Y53984D01*
X332032D01*
X331016Y55000D01*
X332032Y56016D01*
X331016D01*
X330000Y57032D01*
X328984Y56016D01*
X327968D01*
X328984Y55000D01*
X327968Y53984D01*
X328984D01*
X330000Y52968D01*
X317500D02*
X318516Y53984D01*
X319532D01*
X318516Y55000D01*
X319532Y56016D01*
X318516D01*
X317500Y57032D01*
X316484Y56016D01*
X315468D01*
X316484Y55000D01*
X315468Y53984D01*
X316484D01*
X317500Y52968D01*
X305000D02*
X306016Y53984D01*
X307032D01*
X306016Y55000D01*
X307032Y56016D01*
X306016D01*
X305000Y57032D01*
X303984Y56016D01*
X302968D01*
X303984Y55000D01*
X302968Y53984D01*
X303984D01*
X305000Y52968D01*
X292500D02*
X293516Y53984D01*
X294532D01*
X293516Y55000D01*
X294532Y56016D01*
X293516D01*
X292500Y57032D01*
X291484Y56016D01*
X290468D01*
X291484Y55000D01*
X290468Y53984D01*
X291484D01*
X292500Y52968D01*
X280000D02*
X281016Y53984D01*
X282032D01*
X281016Y55000D01*
X282032Y56016D01*
X281016D01*
X280000Y57032D01*
X278984Y56016D01*
X277968D01*
X278984Y55000D01*
X277968Y53984D01*
X278984D01*
X280000Y52968D01*
X220750Y99968D02*
X221766Y100984D01*
X222782D01*
X221766Y102000D01*
X222782Y103016D01*
X221766D01*
X220750Y104032D01*
X219734Y103016D01*
X218718D01*
X219734Y102000D01*
X218718Y100984D01*
X219734D01*
X220750Y99968D01*
Y77718D02*
X221766Y78734D01*
X222782D01*
X221766Y79750D01*
X222782Y80766D01*
X221766D01*
X220750Y81782D01*
X219734Y80766D01*
X218718D01*
X219734Y79750D01*
X218718Y78734D01*
X219734D01*
X220750Y77718D01*
X245750Y99968D02*
X246766Y100984D01*
X247782D01*
X246766Y102000D01*
X247782Y103016D01*
X246766D01*
X245750Y104032D01*
X244734Y103016D01*
X243718D01*
X244734Y102000D01*
X243718Y100984D01*
X244734D01*
X245750Y99968D01*
Y77468D02*
X246766Y78484D01*
X247782D01*
X246766Y79500D01*
X247782Y80516D01*
X246766D01*
X245750Y81532D01*
X244734Y80516D01*
X243718D01*
X244734Y79500D01*
X243718Y78484D01*
X244734D01*
X245750Y77468D01*
X254000Y150218D02*
X255016Y151234D01*
X256032D01*
X255016Y152250D01*
X256032Y153266D01*
X255016D01*
X254000Y154282D01*
X252984Y153266D01*
X251968D01*
X252984Y152250D01*
X251968Y151234D01*
X252984D01*
X254000Y150218D01*
X273000Y77218D02*
X274016Y78234D01*
X275032D01*
X274016Y79250D01*
X275032Y80266D01*
X274016D01*
X273000Y81282D01*
X271984Y80266D01*
X270968D01*
X271984Y79250D01*
X270968Y78234D01*
X271984D01*
X273000Y77218D01*
X313500Y109718D02*
X314516Y110734D01*
X315532D01*
X314516Y111750D01*
X315532Y112766D01*
X314516D01*
X313500Y113782D01*
X312484Y112766D01*
X311468D01*
X312484Y111750D01*
X311468Y110734D01*
X312484D01*
X313500Y109718D01*
X293750Y94968D02*
X294766Y95984D01*
X295782D01*
X294766Y97000D01*
X295782Y98016D01*
X294766D01*
X293750Y99032D01*
X292734Y98016D01*
X291718D01*
X292734Y97000D01*
X291718Y95984D01*
X292734D01*
X293750Y94968D01*
X337500Y94718D02*
X338516Y95734D01*
X339532D01*
X338516Y96750D01*
X339532Y97766D01*
X338516D01*
X337500Y98782D01*
X336484Y97766D01*
X335468D01*
X336484Y96750D01*
X335468Y95734D01*
X336484D01*
X337500Y94718D01*
X510500Y181718D02*
X511516Y182734D01*
X512532D01*
X511516Y183750D01*
X512532Y184766D01*
X511516D01*
X510500Y185782D01*
X509484Y184766D01*
X508468D01*
X509484Y183750D01*
X508468Y182734D01*
X509484D01*
X510500Y181718D01*
X471500Y229968D02*
X472516Y230984D01*
X473532D01*
X472516Y232000D01*
X473532Y233016D01*
X472516D01*
X471500Y234032D01*
X470484Y233016D01*
X469468D01*
X470484Y232000D01*
X469468Y230984D01*
X470484D01*
X471500Y229968D01*
Y245468D02*
X472516Y246484D01*
X473532D01*
X472516Y247500D01*
X473532Y248516D01*
X472516D01*
X471500Y249532D01*
X470484Y248516D01*
X469468D01*
X470484Y247500D01*
X469468Y246484D01*
X470484D01*
X471500Y245468D01*
X572000Y199468D02*
X573016Y200484D01*
X574032D01*
X573016Y201500D01*
X574032Y202516D01*
X573016D01*
X572000Y203532D01*
X570984Y202516D01*
X569968D01*
X570984Y201500D01*
X569968Y200484D01*
X570984D01*
X572000Y199468D01*
X480750Y364468D02*
X481766Y365484D01*
X482782D01*
X481766Y366500D01*
X482782Y367516D01*
X481766D01*
X480750Y368532D01*
X479734Y367516D01*
X478718D01*
X479734Y366500D01*
X478718Y365484D01*
X479734D01*
X480750Y364468D01*
X510510Y253704D02*
X511526Y254720D01*
X512542D01*
X511526Y255736D01*
X512542Y256752D01*
X511526D01*
X510510Y257768D01*
X509494Y256752D01*
X508478D01*
X509494Y255736D01*
X508478Y254720D01*
X509494D01*
X510510Y253704D01*
X466000Y355468D02*
X467016Y356484D01*
X468032D01*
X467016Y357500D01*
X468032Y358516D01*
X467016D01*
X466000Y359532D01*
X464984Y358516D01*
X463968D01*
X464984Y357500D01*
X463968Y356484D01*
X464984D01*
X466000Y355468D01*
X213000Y241718D02*
X214016Y242734D01*
X215032D01*
X214016Y243750D01*
X215032Y244766D01*
X214016D01*
X213000Y245782D01*
X211984Y244766D01*
X210968D01*
X211984Y243750D01*
X210968Y242734D01*
X211984D01*
X213000Y241718D01*
X199000Y160968D02*
X200016Y161984D01*
X201032D01*
X200016Y163000D01*
X201032Y164016D01*
X200016D01*
X199000Y165032D01*
X197984Y164016D01*
X196968D01*
X197984Y163000D01*
X196968Y161984D01*
X197984D01*
X199000Y160968D01*
X183000Y146468D02*
X184016Y147484D01*
X185032D01*
X184016Y148500D01*
X185032Y149516D01*
X184016D01*
X183000Y150532D01*
X181984Y149516D01*
X180968D01*
X181984Y148500D01*
X180968Y147484D01*
X181984D01*
X183000Y146468D01*
X481250Y73718D02*
X482266Y74734D01*
X483282D01*
X482266Y75750D01*
X483282Y76766D01*
X482266D01*
X481250Y77782D01*
X480234Y76766D01*
X479218D01*
X480234Y75750D01*
X479218Y74734D01*
X480234D01*
X481250Y73718D01*
X196250Y247468D02*
X197266Y248484D01*
X198282D01*
X197266Y249500D01*
X198282Y250516D01*
X197266D01*
X196250Y251532D01*
X195234Y250516D01*
X194218D01*
X195234Y249500D01*
X194218Y248484D01*
X195234D01*
X196250Y247468D01*
X186250Y241468D02*
X187266Y242484D01*
X188282D01*
X187266Y243500D01*
X188282Y244516D01*
X187266D01*
X186250Y245532D01*
X185234Y244516D01*
X184218D01*
X185234Y243500D01*
X184218Y242484D01*
X185234D01*
X186250Y241468D01*
X146750Y137468D02*
X147766Y138484D01*
X148782D01*
X147766Y139500D01*
X148782Y140516D01*
X147766D01*
X146750Y141532D01*
X145734Y140516D01*
X144718D01*
X145734Y139500D01*
X144718Y138484D01*
X145734D01*
X146750Y137468D01*
X138750Y116968D02*
X139766Y117984D01*
X140782D01*
X139766Y119000D01*
X140782Y120016D01*
X139766D01*
X138750Y121032D01*
X137734Y120016D01*
X136718D01*
X137734Y119000D01*
X136718Y117984D01*
X137734D01*
X138750Y116968D01*
X133000Y137468D02*
X134016Y138484D01*
X135032D01*
X134016Y139500D01*
X135032Y140516D01*
X134016D01*
X133000Y141532D01*
X131984Y140516D01*
X130968D01*
X131984Y139500D01*
X130968Y138484D01*
X131984D01*
X133000Y137468D01*
X232750Y395468D02*
X233766Y396484D01*
X234782D01*
X233766Y397500D01*
X234782Y398516D01*
X233766D01*
X232750Y399532D01*
X231734Y398516D01*
X230718D01*
X231734Y397500D01*
X230718Y396484D01*
X231734D01*
X232750Y395468D01*
X174500Y331218D02*
X175516Y332234D01*
X176532D01*
X175516Y333250D01*
X176532Y334266D01*
X175516D01*
X174500Y335282D01*
X173484Y334266D01*
X172468D01*
X173484Y333250D01*
X172468Y332234D01*
X173484D01*
X174500Y331218D01*
X174750Y369968D02*
X175766Y370984D01*
X176782D01*
X175766Y372000D01*
X176782Y373016D01*
X175766D01*
X174750Y374032D01*
X173734Y373016D01*
X172718D01*
X173734Y372000D01*
X172718Y370984D01*
X173734D01*
X174750Y369968D01*
X235750Y423718D02*
X236766Y424734D01*
X237782D01*
X236766Y425750D01*
X237782Y426766D01*
X236766D01*
X235750Y427782D01*
X234734Y426766D01*
X233718D01*
X234734Y425750D01*
X233718Y424734D01*
X234734D01*
X235750Y423718D01*
X221500Y426468D02*
X222516Y427484D01*
X223532D01*
X222516Y428500D01*
X223532Y429516D01*
X222516D01*
X221500Y430532D01*
X220484Y429516D01*
X219468D01*
X220484Y428500D01*
X219468Y427484D01*
X220484D01*
X221500Y426468D01*
X178500Y305968D02*
X179516Y306984D01*
X180532D01*
X179516Y308000D01*
X180532Y309016D01*
X179516D01*
X178500Y310032D01*
X177484Y309016D01*
X176468D01*
X177484Y308000D01*
X176468Y306984D01*
X177484D01*
X178500Y305968D01*
X242646Y208072D02*
X243662Y209088D01*
X244678D01*
X243662Y210105D01*
X244678Y211120D01*
X243662D01*
X242646Y212136D01*
X241630Y211120D01*
X240614D01*
X241630Y210105D01*
X240614Y209088D01*
X241630D01*
X242646Y208072D01*
X303125Y205593D02*
X304141Y206609D01*
X305157D01*
X304141Y207625D01*
X305157Y208641D01*
X304141D01*
X303125Y209657D01*
X302109Y208641D01*
X301093D01*
X302109Y207625D01*
X301093Y206609D01*
X302109D01*
X303125Y205593D01*
X563750Y40218D02*
X564766Y41234D01*
X565782D01*
X564766Y42250D01*
X565782Y43266D01*
X564766D01*
X563750Y44282D01*
X562734Y43266D01*
X561718D01*
X562734Y42250D01*
X561718Y41234D01*
X562734D01*
X563750Y40218D01*
Y30218D02*
X564766Y31234D01*
X565782D01*
X564766Y32250D01*
X565782Y33266D01*
X564766D01*
X563750Y34282D01*
X562734Y33266D01*
X561718D01*
X562734Y32250D01*
X561718Y31234D01*
X562734D01*
X563750Y30218D01*
Y20218D02*
X564766Y21234D01*
X565782D01*
X564766Y22250D01*
X565782Y23266D01*
X564766D01*
X563750Y24282D01*
X562734Y23266D01*
X561718D01*
X562734Y22250D01*
X561718Y21234D01*
X562734D01*
X563750Y20218D01*
X287500Y150468D02*
X288516Y151484D01*
X289532D01*
X288516Y152500D01*
X289532Y153516D01*
X288516D01*
X287500Y154532D01*
X286484Y153516D01*
X285468D01*
X286484Y152500D01*
X285468Y151484D01*
X286484D01*
X287500Y150468D01*
X553750Y20218D02*
X554766Y21234D01*
X555782D01*
X554766Y22250D01*
X555782Y23266D01*
X554766D01*
X553750Y24282D01*
X552734Y23266D01*
X551718D01*
X552734Y22250D01*
X551718Y21234D01*
X552734D01*
X553750Y20218D01*
Y30218D02*
X554766Y31234D01*
X555782D01*
X554766Y32250D01*
X555782Y33266D01*
X554766D01*
X553750Y34282D01*
X552734Y33266D01*
X551718D01*
X552734Y32250D01*
X551718Y31234D01*
X552734D01*
X553750Y30218D01*
Y40218D02*
X554766Y41234D01*
X555782D01*
X554766Y42250D01*
X555782Y43266D01*
X554766D01*
X553750Y44282D01*
X552734Y43266D01*
X551718D01*
X552734Y42250D01*
X551718Y41234D01*
X552734D01*
X553750Y40218D01*
Y50218D02*
X554766Y51234D01*
X555782D01*
X554766Y52250D01*
X555782Y53266D01*
X554766D01*
X553750Y54282D01*
X552734Y53266D01*
X551718D01*
X552734Y52250D01*
X551718Y51234D01*
X552734D01*
X553750Y50218D01*
X563750D02*
X564766Y51234D01*
X565782D01*
X564766Y52250D01*
X565782Y53266D01*
X564766D01*
X563750Y54282D01*
X562734Y53266D01*
X561718D01*
X562734Y52250D01*
X561718Y51234D01*
X562734D01*
X563750Y50218D01*
X537250Y181968D02*
X538266Y182984D01*
X539282D01*
X538266Y184000D01*
X539282Y185016D01*
X538266D01*
X537250Y186032D01*
X536234Y185016D01*
X535218D01*
X536234Y184000D01*
X535218Y182984D01*
X536234D01*
X537250Y181968D01*
X340500Y275468D02*
X341516Y276484D01*
X342532D01*
X341516Y277500D01*
X342532Y278516D01*
X341516D01*
X340500Y279532D01*
X339484Y278516D01*
X338468D01*
X339484Y277500D01*
X338468Y276484D01*
X339484D01*
X340500Y275468D01*
X316000Y233218D02*
X317016Y234234D01*
X318032D01*
X317016Y235250D01*
X318032Y236266D01*
X317016D01*
X316000Y237282D01*
X314984Y236266D01*
X313968D01*
X314984Y235250D01*
X313968Y234234D01*
X314984D01*
X316000Y233218D01*
X229250Y163468D02*
X230266Y164484D01*
X231282D01*
X230266Y165500D01*
X231282Y166516D01*
X230266D01*
X229250Y167532D01*
X228234Y166516D01*
X227218D01*
X228234Y165500D01*
X227218Y164484D01*
X228234D01*
X229250Y163468D01*
X314500Y297468D02*
X315516Y298484D01*
X316532D01*
X315516Y299500D01*
X316532Y300516D01*
X315516D01*
X314500Y301532D01*
X313484Y300516D01*
X312468D01*
X313484Y299500D01*
X312468Y298484D01*
X313484D01*
X314500Y297468D01*
D64*
X92132Y23300D02*
G03*
X92132Y23300I-2032J0D01*
G01*
Y48700D02*
G03*
X92132Y48700I-2032J0D01*
G01*
X142932D02*
G03*
X142932Y48700I-2032J0D01*
G01*
X117532Y48700D02*
G03*
X117532Y48700I-2032J0D01*
G01*
X142932Y23300D02*
G03*
X142932Y23300I-2032J0D01*
G01*
X117532D02*
G03*
X117532Y23300I-2032J0D01*
G01*
X387732Y31250D02*
G03*
X387732Y31250I-2032J0D01*
G01*
X336932D02*
G03*
X336932Y31250I-2032J0D01*
G01*
X362332D02*
G03*
X362332Y31250I-2032J0D01*
G01*
X413132D02*
G03*
X413132Y31250I-2032J0D01*
G01*
X311532D02*
G03*
X311532Y31250I-2032J0D01*
G01*
X109782Y144250D02*
G03*
X109782Y144250I-2032J0D01*
G01*
X59782D02*
G03*
X59782Y144250I-2032J0D01*
G01*
X887282Y140250D02*
G03*
X887282Y140250I-2032J0D01*
G01*
Y115250D02*
G03*
X887282Y115250I-2032J0D01*
G01*
M02*
