G04*
G04 #@! TF.GenerationSoftware,Altium Limited,Altium Designer,21.2.1 (34)*
G04*
G04 Layer_Color=8388736*
%FSLAX44Y44*%
%MOMM*%
G71*
G04*
G04 #@! TF.SameCoordinates,88615370-4C05-4218-9965-B51CFC903A55*
G04*
G04*
G04 #@! TF.FilePolarity,Negative*
G04*
G01*
G75*
%ADD17R,0.9032X0.9032*%
%ADD18R,1.2032X1.1532*%
%ADD19R,1.1532X1.2032*%
%ADD20R,0.8032X1.5032*%
%ADD21C,1.7032*%
%ADD22R,1.7032X1.7032*%
%ADD23C,2.0032*%
%ADD24C,2.2032*%
G04:AMPARAMS|DCode=25|XSize=2.2032mm|YSize=2.2032mm|CornerRadius=0.6016mm|HoleSize=0mm|Usage=FLASHONLY|Rotation=90.000|XOffset=0mm|YOffset=0mm|HoleType=Round|Shape=RoundedRectangle|*
%AMROUNDEDRECTD25*
21,1,2.2032,1.0000,0,0,90.0*
21,1,1.0000,2.2032,0,0,90.0*
1,1,1.2032,0.5000,0.5000*
1,1,1.2032,0.5000,-0.5000*
1,1,1.2032,-0.5000,-0.5000*
1,1,1.2032,-0.5000,0.5000*
%
%ADD25ROUNDEDRECTD25*%
%ADD26O,2.2032X1.7032*%
%ADD27C,0.8032*%
D17*
X368983Y102591D02*
D03*
Y91591D02*
D03*
X350683D02*
D03*
Y102591D02*
D03*
X280952D02*
D03*
Y91591D02*
D03*
X262652D02*
D03*
Y102591D02*
D03*
X306667D02*
D03*
X324967Y91591D02*
D03*
X306667D02*
D03*
X324967Y102591D02*
D03*
D18*
X389500Y320250D02*
D03*
X389500Y336250D02*
D03*
X237750Y320250D02*
D03*
Y336250D02*
D03*
X252750Y320250D02*
D03*
Y336250D02*
D03*
X446250Y396750D02*
D03*
Y412750D02*
D03*
X431000Y396750D02*
D03*
X431000Y412750D02*
D03*
X404500Y320250D02*
D03*
X404500Y336250D02*
D03*
X374500Y320250D02*
D03*
X374500Y336250D02*
D03*
X359500Y320250D02*
D03*
Y336250D02*
D03*
X344500Y320250D02*
D03*
X344500Y336250D02*
D03*
X329500Y320250D02*
D03*
Y336250D02*
D03*
X314500Y320250D02*
D03*
Y336250D02*
D03*
X389742Y234990D02*
D03*
Y250990D02*
D03*
X331305Y250964D02*
D03*
Y234964D02*
D03*
X299430Y234990D02*
D03*
Y250990D02*
D03*
Y165434D02*
D03*
Y181434D02*
D03*
X331311D02*
D03*
Y165434D02*
D03*
X389742D02*
D03*
Y181434D02*
D03*
X241017Y250990D02*
D03*
Y234990D02*
D03*
X222750Y320250D02*
D03*
Y336250D02*
D03*
X207750Y320250D02*
D03*
Y336250D02*
D03*
X192750Y320250D02*
D03*
Y336250D02*
D03*
X241017Y181434D02*
D03*
Y165434D02*
D03*
X183339Y179291D02*
D03*
Y163291D02*
D03*
X450546Y179291D02*
D03*
Y163291D02*
D03*
Y253223D02*
D03*
Y237223D02*
D03*
D19*
X352666Y277772D02*
D03*
X368666D02*
D03*
X352934Y208209D02*
D03*
X368934D02*
D03*
X352934Y138646D02*
D03*
X368934D02*
D03*
X278623Y208209D02*
D03*
X262623D02*
D03*
X278348Y277772D02*
D03*
X262348D02*
D03*
X175338Y263383D02*
D03*
X191339D02*
D03*
Y224678D02*
D03*
X175338D02*
D03*
X278623Y138646D02*
D03*
X262623D02*
D03*
D20*
X321141Y410920D02*
D03*
X359241D02*
D03*
X410041Y357580D02*
D03*
X321141D02*
D03*
X333841Y357580D02*
D03*
X346541Y357580D02*
D03*
X359241D02*
D03*
X333841Y410920D02*
D03*
X346541Y410920D02*
D03*
X371941Y357580D02*
D03*
X384641D02*
D03*
X397341Y357580D02*
D03*
X371941Y410920D02*
D03*
X384641D02*
D03*
X397341Y410920D02*
D03*
X410041Y410920D02*
D03*
X286450Y411170D02*
D03*
X273750Y411170D02*
D03*
X261050Y411170D02*
D03*
X248350Y411170D02*
D03*
X273750Y357830D02*
D03*
X261050Y357830D02*
D03*
X248350Y357830D02*
D03*
X222950Y411170D02*
D03*
X210250Y411170D02*
D03*
X235650Y357830D02*
D03*
X222950Y357830D02*
D03*
X210250Y357830D02*
D03*
X197550Y357830D02*
D03*
X286450Y357830D02*
D03*
X235650Y411170D02*
D03*
X197550Y411170D02*
D03*
D21*
X601490Y302130D02*
D03*
X90100Y23300D02*
D03*
Y48700D02*
D03*
X140900D02*
D03*
X115500Y48700D02*
D03*
Y23300D02*
D03*
X774490Y129130D02*
D03*
Y302130D02*
D03*
X601490Y129130D02*
D03*
D22*
X140900Y23300D02*
D03*
D23*
X385700Y31250D02*
D03*
X334900D02*
D03*
X360300D02*
D03*
X411100D02*
D03*
X309500D02*
D03*
X107750Y144250D02*
D03*
X57750D02*
D03*
D24*
X535250Y459500D02*
D03*
D25*
Y359500D02*
D03*
D26*
X885250Y140250D02*
D03*
Y115250D02*
D03*
D27*
X659000Y279250D02*
D03*
X623500Y248750D02*
D03*
M02*
