G04*
G04 #@! TF.GenerationSoftware,Altium Limited,Altium Designer,21.2.1 (34)*
G04*
G04 Layer_Color=16711935*
%FSLAX44Y44*%
%MOMM*%
G71*
G04*
G04 #@! TF.SameCoordinates,88615370-4C05-4218-9965-B51CFC903A55*
G04*
G04*
G04 #@! TF.FilePolarity,Negative*
G04*
G01*
G75*
%ADD18R,1.2032X1.1532*%
%ADD19R,1.1532X1.2032*%
%ADD20R,0.8032X1.5032*%
%ADD21C,1.7032*%
%ADD22R,1.7032X1.7032*%
%ADD23C,2.0032*%
%ADD24C,2.2032*%
G04:AMPARAMS|DCode=25|XSize=2.2032mm|YSize=2.2032mm|CornerRadius=0.6016mm|HoleSize=0mm|Usage=FLASHONLY|Rotation=90.000|XOffset=0mm|YOffset=0mm|HoleType=Round|Shape=RoundedRectangle|*
%AMROUNDEDRECTD25*
21,1,2.2032,1.0000,0,0,90.0*
21,1,1.0000,2.2032,0,0,90.0*
1,1,1.2032,0.5000,0.5000*
1,1,1.2032,0.5000,-0.5000*
1,1,1.2032,-0.5000,-0.5000*
1,1,1.2032,-0.5000,0.5000*
%
%ADD25ROUNDEDRECTD25*%
%ADD26O,2.2032X1.7032*%
%ADD27C,0.8032*%
%ADD51R,6.2230X6.2230*%
%ADD52R,0.8032X1.3532*%
%ADD53R,1.0032X1.0032*%
%ADD54R,1.1032X1.0032*%
%ADD55R,1.7272X1.1176*%
%ADD56R,1.1176X1.7272*%
%ADD57R,1.2032X1.5032*%
%ADD58R,1.2032X2.0032*%
%ADD59R,1.2032X2.6032*%
%ADD60R,3.5032X2.6032*%
%ADD61R,1.5032X1.2032*%
D18*
X313500Y121250D02*
D03*
Y137250D02*
D03*
X257000Y116750D02*
D03*
Y132750D02*
D03*
X590000Y217000D02*
D03*
Y201000D02*
D03*
X459250Y255750D02*
D03*
Y239750D02*
D03*
X177750Y198000D02*
D03*
Y182000D02*
D03*
X192750Y198000D02*
D03*
X192750Y182000D02*
D03*
X157000Y230000D02*
D03*
Y214000D02*
D03*
X177791Y214059D02*
D03*
Y230059D02*
D03*
X192750Y214000D02*
D03*
Y230000D02*
D03*
X421250Y434500D02*
D03*
Y418500D02*
D03*
X241750Y116750D02*
D03*
Y132750D02*
D03*
X480750Y326250D02*
D03*
Y342250D02*
D03*
X496000Y326250D02*
D03*
Y342250D02*
D03*
X459250Y224750D02*
D03*
Y208750D02*
D03*
X439250Y418500D02*
D03*
Y434500D02*
D03*
X403250D02*
D03*
Y418500D02*
D03*
D19*
X727000Y129250D02*
D03*
X711000D02*
D03*
X649000D02*
D03*
X665000D02*
D03*
X662750Y178500D02*
D03*
X646750D02*
D03*
X621250Y201250D02*
D03*
X605250D02*
D03*
X621250Y216750D02*
D03*
X605250D02*
D03*
X744250Y219750D02*
D03*
X760250D02*
D03*
X744250Y235000D02*
D03*
X760250D02*
D03*
X649000Y302000D02*
D03*
X665000D02*
D03*
X727000D02*
D03*
X711000D02*
D03*
X537750Y237750D02*
D03*
X521750D02*
D03*
X415250Y311792D02*
D03*
X431250D02*
D03*
X407250Y327000D02*
D03*
X423250D02*
D03*
X380000Y208750D02*
D03*
X396000D02*
D03*
X483020Y224723D02*
D03*
X499021D02*
D03*
X499021Y240223D02*
D03*
X483020D02*
D03*
X499021Y255723D02*
D03*
X483020D02*
D03*
X537750Y253250D02*
D03*
X521750D02*
D03*
Y222250D02*
D03*
X537750D02*
D03*
Y206750D02*
D03*
X521750D02*
D03*
D20*
X638300Y254670D02*
D03*
X651000Y254670D02*
D03*
X663700Y254670D02*
D03*
X676400D02*
D03*
X638300Y201330D02*
D03*
X651000Y201330D02*
D03*
X663700Y201330D02*
D03*
X676400D02*
D03*
X689100Y254670D02*
D03*
X701800D02*
D03*
X714500Y254670D02*
D03*
X727200Y254670D02*
D03*
X689100Y201330D02*
D03*
X701800D02*
D03*
X714500Y201330D02*
D03*
X727200Y201330D02*
D03*
X402700Y290462D02*
D03*
X415400D02*
D03*
X428100D02*
D03*
X440800D02*
D03*
X402700Y237122D02*
D03*
X415400Y237122D02*
D03*
X428100Y237122D02*
D03*
X440800Y237122D02*
D03*
D21*
X601490Y302130D02*
D03*
X90100Y23300D02*
D03*
Y48700D02*
D03*
X140900D02*
D03*
X115500Y48700D02*
D03*
Y23300D02*
D03*
X774490Y129130D02*
D03*
Y302130D02*
D03*
X601490Y129130D02*
D03*
D22*
X140900Y23300D02*
D03*
D23*
X385700Y31250D02*
D03*
X334900D02*
D03*
X360300D02*
D03*
X411100D02*
D03*
X309500D02*
D03*
X107750Y144250D02*
D03*
X57750D02*
D03*
D24*
X535250Y459500D02*
D03*
D25*
Y359500D02*
D03*
D26*
X885250Y140250D02*
D03*
Y115250D02*
D03*
D27*
X659000Y279250D02*
D03*
X623500Y248750D02*
D03*
D51*
X282415Y358142D02*
D03*
D52*
X284250Y113195D02*
D03*
X274750Y135875D02*
D03*
X293750D02*
D03*
X284250Y135875D02*
D03*
X274750Y113125D02*
D03*
X293750D02*
D03*
D53*
X465750Y345250D02*
D03*
X465750Y323250D02*
D03*
D54*
X211416Y212684D02*
D03*
X231666Y221934D02*
D03*
X211416Y231684D02*
D03*
X211375Y180500D02*
D03*
X231625Y189750D02*
D03*
X211375Y199500D02*
D03*
D55*
X372585Y409958D02*
D03*
X372585Y397258D02*
D03*
X372585Y384558D02*
D03*
X372585Y371858D02*
D03*
X372585Y359158D02*
D03*
X372585Y320842D02*
D03*
X372585Y308142D02*
D03*
X372585Y295442D02*
D03*
X372585Y282742D02*
D03*
X372585Y270042D02*
D03*
X192415Y270042D02*
D03*
X192415Y282742D02*
D03*
X192415Y295442D02*
D03*
X192415Y308142D02*
D03*
X192415Y320842D02*
D03*
X192415Y333542D02*
D03*
X192415Y346242D02*
D03*
X192415Y359158D02*
D03*
X192415Y371858D02*
D03*
X192415Y384558D02*
D03*
X192415Y397258D02*
D03*
Y409958D02*
D03*
X192415Y422658D02*
D03*
X372585Y422658D02*
D03*
Y435358D02*
D03*
X192415Y435358D02*
D03*
X372585Y346242D02*
D03*
Y333542D02*
D03*
D56*
X326865Y255142D02*
D03*
X314165Y255142D02*
D03*
X301465Y255142D02*
D03*
X288765Y255142D02*
D03*
X276065D02*
D03*
X263365Y255142D02*
D03*
X250665Y255142D02*
D03*
X237965Y255142D02*
D03*
X225265Y255142D02*
D03*
X339565D02*
D03*
D57*
X377500Y173250D02*
D03*
X358500D02*
D03*
X481520Y206723D02*
D03*
X500521D02*
D03*
D58*
X413250Y209000D02*
D03*
X438250D02*
D03*
D59*
X500000Y44000D02*
D03*
X523000D02*
D03*
X477000Y44000D02*
D03*
D60*
X500000Y102000D02*
D03*
D61*
X449250Y31250D02*
D03*
Y50250D02*
D03*
M02*
