M48
;Layer_Color=9474304
;FILE_FORMAT=4:4
METRIC,LZ
;TYPE=PLATED
T1F00S00C0.3000
T2F00S00C0.6000
T3F00S00C1.0000
T4F00S00C1.1000
%
T01
X0055375Y0002225
X0056375
Y0003225
X0055375
Y0004225
X0056375
Y0005225
X0055375
X0048125Y0007575
X005105Y0018375
X0053725Y00184
X00572Y002015
X00555Y0022
X0051051Y00255736
X004715Y002475
Y00232
X00466Y003575
X0048Y00355
X0048075Y003665
X0043Y003825
X006235Y0024875
X00659Y0027925
X003405Y002775
X003145Y002995
X002875Y003125
X00245Y00375
X0023275Y003975
X0023575Y0042575
X002215Y004285
X0017475Y00372
X001745Y0033325
X001785Y00308
X0018625Y002435
X0019625Y002495
X00213Y0024375
X00242646Y00210105
X0022925Y001655
X00199Y00163
X00183Y001485
X0014675Y001395
X00133
X0013875Y00119
X00075Y0011
Y00085
X00175Y00045
X0022075Y0007975
Y00102
X0024575
Y000795
X00273Y0007925
X0028Y00055
X002925
X00305
X003175
X0033
X003425
X00355
X003675
X003375Y0009675
X003135Y0011175
X0029375Y00097
X002875Y001525
X00254Y0015225
X00303125Y00207625
X00316Y0023525
T02
X0060149Y0012913
X0077449
Y0030213
X0060149
T03
X000901Y000233
X001155
X001409
X003095Y0003125
X003349
X003603
X003857
X004111
X0088525Y0011525
Y0014025
X0010775Y0014425
X0005775
X000901Y000487
X001155Y000487
X001409Y000487
T04
X0053525Y003595
Y004595
M30
